<svg width="20" height="20" viewBox="0 0 20 20" fill="none" xmlns="http://www.w3.org/2000/svg">
<path fill-rule="evenodd" clip-rule="evenodd" d="M17 16C17 18.2091 15.2091 20 13 20L2 20C0.895428 20 0 19.1046 0 18V2C0 0.895431 0.89543 0 2 0H13C15.2091 0 17 1.79086 17 4L17 16ZM9.56963 9.69024C10.1288 9.33563 10.5 8.71116 10.5 8C10.5 6.89543 9.60457 6 8.5 6C7.39543 6 6.5 6.89543 6.5 8C6.5 8.71116 6.87118 9.33563 7.43037 9.69024C6.02053 10.2068 5 11.7172 5 13.5C5 13.7851 5.24299 14 5.52806 14H11.4719C11.757 14 12 13.7851 12 13.5C12 11.7172 10.9795 10.2068 9.56963 9.69024Z" fill="#1A94FF"/>
<path d="M20 5C20 4.44772 19.5523 4 19 4C18.4477 4 18 4.44772 18 5V11C18 11.5523 18.4477 12 19 12C19.5523 12 20 11.5523 20 11V5Z" fill="#1A94FF"/>
</svg>
